<mxfile host="app.diagrams.net" agent="Mozilla/5.0 (Windows NT 10.0; Win64; x64) AppleWebKit/537.36 (KHTML, like Gecko) Chrome/130.0.0.0 Safari/537.36 Edg/130.0.0.0" version="24.8.4">
  <diagram id="C5RBs43oDa-KdzZeNtuy" name="Page-1">
    <mxGraphModel dx="2013" dy="753" grid="1" gridSize="10" guides="1" tooltips="1" connect="1" arrows="1" fold="1" page="1" pageScale="1" pageWidth="827" pageHeight="1169" math="0" shadow="0">
      <root>
        <mxCell id="WIyWlLk6GJQsqaUBKTNV-0" />
        <mxCell id="WIyWlLk6GJQsqaUBKTNV-1" parent="WIyWlLk6GJQsqaUBKTNV-0" />
        <mxCell id="9LSmWpDDiQw-UIfxzBy9-60" style="edgeStyle=orthogonalEdgeStyle;rounded=0;orthogonalLoop=1;jettySize=auto;html=1;endArrow=none;endFill=0;" edge="1" parent="WIyWlLk6GJQsqaUBKTNV-1" source="9LSmWpDDiQw-UIfxzBy9-8" target="9LSmWpDDiQw-UIfxzBy9-57">
          <mxGeometry relative="1" as="geometry" />
        </mxCell>
        <mxCell id="9LSmWpDDiQw-UIfxzBy9-69" value="1, N" style="edgeLabel;html=1;align=center;verticalAlign=middle;resizable=0;points=[];" vertex="1" connectable="0" parent="9LSmWpDDiQw-UIfxzBy9-60">
          <mxGeometry x="0.6726" y="-1" relative="1" as="geometry">
            <mxPoint x="1" y="-19" as="offset" />
          </mxGeometry>
        </mxCell>
        <mxCell id="9LSmWpDDiQw-UIfxzBy9-8" value="Clients" style="swimlane;fontStyle=0;childLayout=stackLayout;horizontal=1;startSize=30;horizontalStack=0;resizeParent=1;resizeParentMax=0;resizeLast=0;collapsible=1;marginBottom=0;whiteSpace=wrap;html=1;" vertex="1" parent="WIyWlLk6GJQsqaUBKTNV-1">
          <mxGeometry x="80" y="40" width="140" height="150" as="geometry" />
        </mxCell>
        <mxCell id="9LSmWpDDiQw-UIfxzBy9-9" value="ClientID" style="text;strokeColor=none;fillColor=none;align=left;verticalAlign=middle;spacingLeft=4;spacingRight=4;overflow=hidden;points=[[0,0.5],[1,0.5]];portConstraint=eastwest;rotatable=0;whiteSpace=wrap;html=1;" vertex="1" parent="9LSmWpDDiQw-UIfxzBy9-8">
          <mxGeometry y="30" width="140" height="30" as="geometry" />
        </mxCell>
        <mxCell id="9LSmWpDDiQw-UIfxzBy9-13" value="ClientEstActif" style="text;strokeColor=none;fillColor=none;align=left;verticalAlign=middle;spacingLeft=4;spacingRight=4;overflow=hidden;points=[[0,0.5],[1,0.5]];portConstraint=eastwest;rotatable=0;whiteSpace=wrap;html=1;" vertex="1" parent="9LSmWpDDiQw-UIfxzBy9-8">
          <mxGeometry y="60" width="140" height="30" as="geometry" />
        </mxCell>
        <mxCell id="9LSmWpDDiQw-UIfxzBy9-14" value="NumeroCarteBancaire" style="text;html=1;align=left;verticalAlign=middle;whiteSpace=wrap;rounded=0;" vertex="1" parent="9LSmWpDDiQw-UIfxzBy9-8">
          <mxGeometry y="90" width="140" height="30" as="geometry" />
        </mxCell>
        <mxCell id="9LSmWpDDiQw-UIfxzBy9-15" value="Email" style="text;html=1;align=left;verticalAlign=middle;whiteSpace=wrap;rounded=0;" vertex="1" parent="9LSmWpDDiQw-UIfxzBy9-8">
          <mxGeometry y="120" width="140" height="30" as="geometry" />
        </mxCell>
        <mxCell id="9LSmWpDDiQw-UIfxzBy9-16" value="Personnes" style="swimlane;fontStyle=0;childLayout=stackLayout;horizontal=1;startSize=30;horizontalStack=0;resizeParent=1;resizeParentMax=0;resizeLast=0;collapsible=1;marginBottom=0;whiteSpace=wrap;html=1;" vertex="1" parent="WIyWlLk6GJQsqaUBKTNV-1">
          <mxGeometry x="600" y="85" width="200" height="60" as="geometry" />
        </mxCell>
        <mxCell id="9LSmWpDDiQw-UIfxzBy9-17" value="PersonneID" style="text;strokeColor=none;fillColor=none;align=left;verticalAlign=middle;spacingLeft=4;spacingRight=4;overflow=hidden;points=[[0,0.5],[1,0.5]];portConstraint=eastwest;rotatable=0;whiteSpace=wrap;html=1;" vertex="1" parent="9LSmWpDDiQw-UIfxzBy9-16">
          <mxGeometry y="30" width="200" height="30" as="geometry" />
        </mxCell>
        <mxCell id="9LSmWpDDiQw-UIfxzBy9-21" value="&lt;div&gt;&lt;b&gt;Est&lt;/b&gt;&lt;/div&gt;&lt;div&gt;Nom&lt;/div&gt;&lt;div&gt;Prénom&lt;/div&gt;&lt;div&gt;&lt;span style=&quot;text-align: left;&quot;&gt;Date-naissance&lt;/span&gt;&lt;/div&gt;" style="ellipse;whiteSpace=wrap;html=1;" vertex="1" parent="WIyWlLk6GJQsqaUBKTNV-1">
          <mxGeometry x="320" y="75" width="120" height="80" as="geometry" />
        </mxCell>
        <mxCell id="9LSmWpDDiQw-UIfxzBy9-22" value="" style="endArrow=none;html=1;rounded=0;exitX=1;exitY=0.5;exitDx=0;exitDy=0;entryX=0;entryY=0.5;entryDx=0;entryDy=0;" edge="1" parent="WIyWlLk6GJQsqaUBKTNV-1" source="9LSmWpDDiQw-UIfxzBy9-13" target="9LSmWpDDiQw-UIfxzBy9-21">
          <mxGeometry width="50" height="50" relative="1" as="geometry">
            <mxPoint x="300" y="290" as="sourcePoint" />
            <mxPoint x="350" y="240" as="targetPoint" />
          </mxGeometry>
        </mxCell>
        <mxCell id="9LSmWpDDiQw-UIfxzBy9-25" value="1,1" style="edgeLabel;html=1;align=center;verticalAlign=middle;resizable=0;points=[];" vertex="1" connectable="0" parent="9LSmWpDDiQw-UIfxzBy9-22">
          <mxGeometry x="0.0436" y="1" relative="1" as="geometry">
            <mxPoint as="offset" />
          </mxGeometry>
        </mxCell>
        <mxCell id="9LSmWpDDiQw-UIfxzBy9-23" value="" style="endArrow=none;html=1;rounded=0;exitX=1;exitY=0.5;exitDx=0;exitDy=0;" edge="1" parent="WIyWlLk6GJQsqaUBKTNV-1" source="9LSmWpDDiQw-UIfxzBy9-21" target="9LSmWpDDiQw-UIfxzBy9-16">
          <mxGeometry width="50" height="50" relative="1" as="geometry">
            <mxPoint x="520" y="290" as="sourcePoint" />
            <mxPoint x="570" y="240" as="targetPoint" />
          </mxGeometry>
        </mxCell>
        <mxCell id="9LSmWpDDiQw-UIfxzBy9-26" value="1,1" style="edgeLabel;html=1;align=center;verticalAlign=middle;resizable=0;points=[];" vertex="1" connectable="0" parent="9LSmWpDDiQw-UIfxzBy9-23">
          <mxGeometry x="-0.0731" y="3" relative="1" as="geometry">
            <mxPoint as="offset" />
          </mxGeometry>
        </mxCell>
        <mxCell id="9LSmWpDDiQw-UIfxzBy9-27" value="Employees" style="swimlane;fontStyle=0;childLayout=stackLayout;horizontal=1;startSize=30;horizontalStack=0;resizeParent=1;resizeParentMax=0;resizeLast=0;collapsible=1;marginBottom=0;whiteSpace=wrap;html=1;" vertex="1" parent="WIyWlLk6GJQsqaUBKTNV-1">
          <mxGeometry x="630" y="400" width="140" height="150" as="geometry" />
        </mxCell>
        <mxCell id="9LSmWpDDiQw-UIfxzBy9-28" value="EmployeeID" style="text;strokeColor=none;fillColor=none;align=left;verticalAlign=middle;spacingLeft=4;spacingRight=4;overflow=hidden;points=[[0,0.5],[1,0.5]];portConstraint=eastwest;rotatable=0;whiteSpace=wrap;html=1;" vertex="1" parent="9LSmWpDDiQw-UIfxzBy9-27">
          <mxGeometry y="30" width="140" height="30" as="geometry" />
        </mxCell>
        <mxCell id="9LSmWpDDiQw-UIfxzBy9-30" value="DateEngagement" style="text;strokeColor=none;fillColor=none;align=left;verticalAlign=middle;spacingLeft=4;spacingRight=4;overflow=hidden;points=[[0,0.5],[1,0.5]];portConstraint=eastwest;rotatable=0;whiteSpace=wrap;html=1;" vertex="1" parent="9LSmWpDDiQw-UIfxzBy9-27">
          <mxGeometry y="60" width="140" height="30" as="geometry" />
        </mxCell>
        <mxCell id="9LSmWpDDiQw-UIfxzBy9-31" value="TauxHorraire" style="text;html=1;align=left;verticalAlign=middle;whiteSpace=wrap;rounded=0;" vertex="1" parent="9LSmWpDDiQw-UIfxzBy9-27">
          <mxGeometry y="90" width="140" height="30" as="geometry" />
        </mxCell>
        <mxCell id="9LSmWpDDiQw-UIfxzBy9-32" value="NumeroCompteBancaire" style="text;html=1;align=left;verticalAlign=middle;whiteSpace=wrap;rounded=0;" vertex="1" parent="9LSmWpDDiQw-UIfxzBy9-27">
          <mxGeometry y="120" width="140" height="30" as="geometry" />
        </mxCell>
        <mxCell id="9LSmWpDDiQw-UIfxzBy9-33" value="&lt;div&gt;&lt;b&gt;Est&lt;/b&gt;&lt;/div&gt;&lt;div&gt;Nom&lt;/div&gt;&lt;div&gt;Prénom&lt;/div&gt;&lt;div&gt;&lt;span style=&quot;text-align: left;&quot;&gt;Date-naissance&lt;/span&gt;&lt;/div&gt;" style="ellipse;whiteSpace=wrap;html=1;" vertex="1" parent="WIyWlLk6GJQsqaUBKTNV-1">
          <mxGeometry x="640" y="260" width="120" height="80" as="geometry" />
        </mxCell>
        <mxCell id="9LSmWpDDiQw-UIfxzBy9-34" value="" style="endArrow=none;html=1;rounded=0;entryX=0.5;entryY=0;entryDx=0;entryDy=0;" edge="1" parent="WIyWlLk6GJQsqaUBKTNV-1" source="9LSmWpDDiQw-UIfxzBy9-16" target="9LSmWpDDiQw-UIfxzBy9-33">
          <mxGeometry width="50" height="50" relative="1" as="geometry">
            <mxPoint x="660" y="260" as="sourcePoint" />
            <mxPoint x="660" y="290" as="targetPoint" />
          </mxGeometry>
        </mxCell>
        <mxCell id="9LSmWpDDiQw-UIfxzBy9-35" value="1,1" style="edgeLabel;html=1;align=center;verticalAlign=middle;resizable=0;points=[];" vertex="1" connectable="0" parent="9LSmWpDDiQw-UIfxzBy9-34">
          <mxGeometry x="-0.0731" y="3" relative="1" as="geometry">
            <mxPoint as="offset" />
          </mxGeometry>
        </mxCell>
        <mxCell id="9LSmWpDDiQw-UIfxzBy9-36" value="" style="endArrow=none;html=1;rounded=0;exitX=0.5;exitY=1;exitDx=0;exitDy=0;" edge="1" parent="WIyWlLk6GJQsqaUBKTNV-1" source="9LSmWpDDiQw-UIfxzBy9-33" target="9LSmWpDDiQw-UIfxzBy9-27">
          <mxGeometry width="50" height="50" relative="1" as="geometry">
            <mxPoint x="460" y="410" as="sourcePoint" />
            <mxPoint x="710" y="435" as="targetPoint" />
          </mxGeometry>
        </mxCell>
        <mxCell id="9LSmWpDDiQw-UIfxzBy9-37" value="1,1" style="edgeLabel;html=1;align=center;verticalAlign=middle;resizable=0;points=[];" vertex="1" connectable="0" parent="9LSmWpDDiQw-UIfxzBy9-36">
          <mxGeometry x="-0.0731" y="3" relative="1" as="geometry">
            <mxPoint as="offset" />
          </mxGeometry>
        </mxCell>
        <mxCell id="9LSmWpDDiQw-UIfxzBy9-38" value="Parcours" style="swimlane;fontStyle=0;childLayout=stackLayout;horizontal=1;startSize=30;horizontalStack=0;resizeParent=1;resizeParentMax=0;resizeLast=0;collapsible=1;marginBottom=0;whiteSpace=wrap;html=1;" vertex="1" parent="WIyWlLk6GJQsqaUBKTNV-1">
          <mxGeometry x="-360" y="25" width="140" height="180" as="geometry" />
        </mxCell>
        <mxCell id="9LSmWpDDiQw-UIfxzBy9-39" value="ParcoursID" style="text;strokeColor=none;fillColor=none;align=left;verticalAlign=middle;spacingLeft=4;spacingRight=4;overflow=hidden;points=[[0,0.5],[1,0.5]];portConstraint=eastwest;rotatable=0;whiteSpace=wrap;html=1;" vertex="1" parent="9LSmWpDDiQw-UIfxzBy9-38">
          <mxGeometry y="30" width="140" height="30" as="geometry" />
        </mxCell>
        <mxCell id="9LSmWpDDiQw-UIfxzBy9-40" value="NomDuParcours" style="text;strokeColor=none;fillColor=none;align=left;verticalAlign=middle;spacingLeft=4;spacingRight=4;overflow=hidden;points=[[0,0.5],[1,0.5]];portConstraint=eastwest;rotatable=0;whiteSpace=wrap;html=1;" vertex="1" parent="9LSmWpDDiQw-UIfxzBy9-38">
          <mxGeometry y="60" width="140" height="30" as="geometry" />
        </mxCell>
        <mxCell id="9LSmWpDDiQw-UIfxzBy9-41" value="&amp;nbsp;NiveauDifficulte" style="text;html=1;align=left;verticalAlign=middle;whiteSpace=wrap;rounded=0;" vertex="1" parent="9LSmWpDDiQw-UIfxzBy9-38">
          <mxGeometry y="90" width="140" height="30" as="geometry" />
        </mxCell>
        <mxCell id="9LSmWpDDiQw-UIfxzBy9-42" value="TypeDeParcours" style="text;strokeColor=none;fillColor=none;align=left;verticalAlign=middle;spacingLeft=4;spacingRight=4;overflow=hidden;points=[[0,0.5],[1,0.5]];portConstraint=eastwest;rotatable=0;whiteSpace=wrap;html=1;" vertex="1" parent="9LSmWpDDiQw-UIfxzBy9-38">
          <mxGeometry y="120" width="140" height="30" as="geometry" />
        </mxCell>
        <mxCell id="9LSmWpDDiQw-UIfxzBy9-43" value="&amp;nbsp;EstInstalle" style="text;html=1;align=left;verticalAlign=middle;whiteSpace=wrap;rounded=0;" vertex="1" parent="9LSmWpDDiQw-UIfxzBy9-38">
          <mxGeometry y="150" width="140" height="30" as="geometry" />
        </mxCell>
        <mxCell id="9LSmWpDDiQw-UIfxzBy9-44" value="&lt;b&gt;Effectue&lt;/b&gt;" style="ellipse;whiteSpace=wrap;html=1;" vertex="1" parent="WIyWlLk6GJQsqaUBKTNV-1">
          <mxGeometry x="-120" y="75" width="120" height="80" as="geometry" />
        </mxCell>
        <mxCell id="9LSmWpDDiQw-UIfxzBy9-45" value="" style="endArrow=none;html=1;rounded=0;entryX=0;entryY=0.5;entryDx=0;entryDy=0;" edge="1" parent="WIyWlLk6GJQsqaUBKTNV-1" source="9LSmWpDDiQw-UIfxzBy9-38" target="9LSmWpDDiQw-UIfxzBy9-44">
          <mxGeometry width="50" height="50" relative="1" as="geometry">
            <mxPoint x="-150" y="370" as="sourcePoint" />
            <mxPoint x="-100" y="320" as="targetPoint" />
          </mxGeometry>
        </mxCell>
        <mxCell id="9LSmWpDDiQw-UIfxzBy9-47" value="1,N" style="edgeLabel;html=1;align=center;verticalAlign=middle;resizable=0;points=[];" vertex="1" connectable="0" parent="9LSmWpDDiQw-UIfxzBy9-45">
          <mxGeometry x="-0.2" y="-1" relative="1" as="geometry">
            <mxPoint as="offset" />
          </mxGeometry>
        </mxCell>
        <mxCell id="9LSmWpDDiQw-UIfxzBy9-49" value="" style="endArrow=none;html=1;rounded=0;exitX=1;exitY=0.5;exitDx=0;exitDy=0;" edge="1" parent="WIyWlLk6GJQsqaUBKTNV-1" source="9LSmWpDDiQw-UIfxzBy9-44" target="9LSmWpDDiQw-UIfxzBy9-8">
          <mxGeometry width="50" height="50" relative="1" as="geometry">
            <mxPoint x="-30" y="320" as="sourcePoint" />
            <mxPoint x="60" y="155" as="targetPoint" />
          </mxGeometry>
        </mxCell>
        <mxCell id="9LSmWpDDiQw-UIfxzBy9-50" value="1,N" style="edgeLabel;html=1;align=center;verticalAlign=middle;resizable=0;points=[];" vertex="1" connectable="0" parent="9LSmWpDDiQw-UIfxzBy9-49">
          <mxGeometry x="0.0029" relative="1" as="geometry">
            <mxPoint as="offset" />
          </mxGeometry>
        </mxCell>
        <mxCell id="9LSmWpDDiQw-UIfxzBy9-61" style="edgeStyle=orthogonalEdgeStyle;rounded=0;orthogonalLoop=1;jettySize=auto;html=1;entryX=0.5;entryY=1;entryDx=0;entryDy=0;endArrow=none;endFill=0;" edge="1" parent="WIyWlLk6GJQsqaUBKTNV-1" source="9LSmWpDDiQw-UIfxzBy9-51" target="9LSmWpDDiQw-UIfxzBy9-57">
          <mxGeometry relative="1" as="geometry" />
        </mxCell>
        <mxCell id="9LSmWpDDiQw-UIfxzBy9-70" value="1, 1" style="edgeLabel;html=1;align=center;verticalAlign=middle;resizable=0;points=[];" vertex="1" connectable="0" parent="9LSmWpDDiQw-UIfxzBy9-61">
          <mxGeometry x="0.7834" relative="1" as="geometry">
            <mxPoint y="24" as="offset" />
          </mxGeometry>
        </mxCell>
        <mxCell id="9LSmWpDDiQw-UIfxzBy9-67" value="" style="edgeStyle=orthogonalEdgeStyle;rounded=0;orthogonalLoop=1;jettySize=auto;html=1;endArrow=none;endFill=0;" edge="1" parent="WIyWlLk6GJQsqaUBKTNV-1" source="9LSmWpDDiQw-UIfxzBy9-51" target="9LSmWpDDiQw-UIfxzBy9-66">
          <mxGeometry relative="1" as="geometry" />
        </mxCell>
        <mxCell id="9LSmWpDDiQw-UIfxzBy9-80" value="1,1" style="edgeLabel;html=1;align=center;verticalAlign=middle;resizable=0;points=[];" vertex="1" connectable="0" parent="9LSmWpDDiQw-UIfxzBy9-67">
          <mxGeometry x="-0.0039" y="-1" relative="1" as="geometry">
            <mxPoint as="offset" />
          </mxGeometry>
        </mxCell>
        <mxCell id="9LSmWpDDiQw-UIfxzBy9-51" value="Visites" style="swimlane;fontStyle=0;childLayout=stackLayout;horizontal=1;startSize=30;horizontalStack=0;resizeParent=1;resizeParentMax=0;resizeLast=0;collapsible=1;marginBottom=0;whiteSpace=wrap;html=1;" vertex="1" parent="WIyWlLk6GJQsqaUBKTNV-1">
          <mxGeometry x="80" y="400" width="140" height="90" as="geometry" />
        </mxCell>
        <mxCell id="9LSmWpDDiQw-UIfxzBy9-52" value="VisiteID" style="text;strokeColor=none;fillColor=none;align=left;verticalAlign=middle;spacingLeft=4;spacingRight=4;overflow=hidden;points=[[0,0.5],[1,0.5]];portConstraint=eastwest;rotatable=0;whiteSpace=wrap;html=1;" vertex="1" parent="9LSmWpDDiQw-UIfxzBy9-51">
          <mxGeometry y="30" width="140" height="30" as="geometry" />
        </mxCell>
        <mxCell id="9LSmWpDDiQw-UIfxzBy9-54" value="TransactionID" style="text;html=1;align=left;verticalAlign=middle;whiteSpace=wrap;rounded=0;" vertex="1" parent="9LSmWpDDiQw-UIfxzBy9-51">
          <mxGeometry y="60" width="140" height="30" as="geometry" />
        </mxCell>
        <mxCell id="9LSmWpDDiQw-UIfxzBy9-57" value="&lt;b&gt;Effectue&lt;/b&gt;&lt;br&gt;&lt;div&gt;HeureEntree&lt;/div&gt;&lt;div&gt;&lt;div&gt;HeureSortie&lt;br&gt;&lt;/div&gt;&lt;/div&gt;" style="ellipse;whiteSpace=wrap;html=1;" vertex="1" parent="WIyWlLk6GJQsqaUBKTNV-1">
          <mxGeometry x="90" y="260" width="120" height="80" as="geometry" />
        </mxCell>
        <mxCell id="9LSmWpDDiQw-UIfxzBy9-62" value="Transaction" style="swimlane;fontStyle=0;childLayout=stackLayout;horizontal=1;startSize=30;horizontalStack=0;resizeParent=1;resizeParentMax=0;resizeLast=0;collapsible=1;marginBottom=0;whiteSpace=wrap;html=1;" vertex="1" parent="WIyWlLk6GJQsqaUBKTNV-1">
          <mxGeometry x="80" y="760" width="140" height="90" as="geometry" />
        </mxCell>
        <mxCell id="9LSmWpDDiQw-UIfxzBy9-63" value="TransactionID" style="text;strokeColor=none;fillColor=none;align=left;verticalAlign=middle;spacingLeft=4;spacingRight=4;overflow=hidden;points=[[0,0.5],[1,0.5]];portConstraint=eastwest;rotatable=0;whiteSpace=wrap;html=1;" vertex="1" parent="9LSmWpDDiQw-UIfxzBy9-62">
          <mxGeometry y="30" width="140" height="30" as="geometry" />
        </mxCell>
        <mxCell id="9LSmWpDDiQw-UIfxzBy9-64" value="MontantTransaction" style="text;strokeColor=none;fillColor=none;align=left;verticalAlign=middle;spacingLeft=4;spacingRight=4;overflow=hidden;points=[[0,0.5],[1,0.5]];portConstraint=eastwest;rotatable=0;whiteSpace=wrap;html=1;" vertex="1" parent="9LSmWpDDiQw-UIfxzBy9-62">
          <mxGeometry y="60" width="140" height="30" as="geometry" />
        </mxCell>
        <mxCell id="9LSmWpDDiQw-UIfxzBy9-66" value="&lt;b&gt;Nécessite&lt;/b&gt;&lt;div&gt;DateTransaction&lt;/div&gt;" style="ellipse;whiteSpace=wrap;html=1;" vertex="1" parent="WIyWlLk6GJQsqaUBKTNV-1">
          <mxGeometry x="90" y="550" width="120" height="80" as="geometry" />
        </mxCell>
        <mxCell id="9LSmWpDDiQw-UIfxzBy9-71" value="" style="edgeStyle=orthogonalEdgeStyle;rounded=0;orthogonalLoop=1;jettySize=auto;html=1;endArrow=none;endFill=0;" edge="1" parent="WIyWlLk6GJQsqaUBKTNV-1" source="9LSmWpDDiQw-UIfxzBy9-66" target="9LSmWpDDiQw-UIfxzBy9-62">
          <mxGeometry relative="1" as="geometry">
            <mxPoint x="150" y="674" as="sourcePoint" />
            <mxPoint x="160" y="654" as="targetPoint" />
          </mxGeometry>
        </mxCell>
        <mxCell id="9LSmWpDDiQw-UIfxzBy9-79" value="1,1" style="edgeLabel;html=1;align=center;verticalAlign=middle;resizable=0;points=[];" vertex="1" connectable="0" parent="9LSmWpDDiQw-UIfxzBy9-71">
          <mxGeometry x="-0.0745" y="-3" relative="1" as="geometry">
            <mxPoint as="offset" />
          </mxGeometry>
        </mxCell>
        <mxCell id="9LSmWpDDiQw-UIfxzBy9-74" value="Payes" style="swimlane;fontStyle=0;childLayout=stackLayout;horizontal=1;startSize=30;horizontalStack=0;resizeParent=1;resizeParentMax=0;resizeLast=0;collapsible=1;marginBottom=0;whiteSpace=wrap;html=1;" vertex="1" parent="WIyWlLk6GJQsqaUBKTNV-1">
          <mxGeometry x="630" y="744" width="140" height="120" as="geometry" />
        </mxCell>
        <mxCell id="9LSmWpDDiQw-UIfxzBy9-75" value="PayeID" style="text;strokeColor=none;fillColor=none;align=left;verticalAlign=middle;spacingLeft=4;spacingRight=4;overflow=hidden;points=[[0,0.5],[1,0.5]];portConstraint=eastwest;rotatable=0;whiteSpace=wrap;html=1;" vertex="1" parent="9LSmWpDDiQw-UIfxzBy9-74">
          <mxGeometry y="30" width="140" height="30" as="geometry" />
        </mxCell>
        <mxCell id="9LSmWpDDiQw-UIfxzBy9-76" value="TransactionID" style="text;strokeColor=none;fillColor=none;align=left;verticalAlign=middle;spacingLeft=4;spacingRight=4;overflow=hidden;points=[[0,0.5],[1,0.5]];portConstraint=eastwest;rotatable=0;whiteSpace=wrap;html=1;" vertex="1" parent="9LSmWpDDiQw-UIfxzBy9-74">
          <mxGeometry y="60" width="140" height="30" as="geometry" />
        </mxCell>
        <mxCell id="9LSmWpDDiQw-UIfxzBy9-77" value="EmployeeID" style="text;strokeColor=none;fillColor=none;align=left;verticalAlign=middle;spacingLeft=4;spacingRight=4;overflow=hidden;points=[[0,0.5],[1,0.5]];portConstraint=eastwest;rotatable=0;whiteSpace=wrap;html=1;" vertex="1" parent="9LSmWpDDiQw-UIfxzBy9-74">
          <mxGeometry y="90" width="140" height="30" as="geometry" />
        </mxCell>
        <mxCell id="9LSmWpDDiQw-UIfxzBy9-81" value="" style="edgeStyle=orthogonalEdgeStyle;rounded=0;orthogonalLoop=1;jettySize=auto;html=1;endArrow=none;endFill=0;" edge="1" parent="WIyWlLk6GJQsqaUBKTNV-1" target="9LSmWpDDiQw-UIfxzBy9-83" source="9LSmWpDDiQw-UIfxzBy9-62">
          <mxGeometry relative="1" as="geometry">
            <mxPoint x="440" y="624" as="sourcePoint" />
          </mxGeometry>
        </mxCell>
        <mxCell id="9LSmWpDDiQw-UIfxzBy9-82" value="1,1" style="edgeLabel;html=1;align=center;verticalAlign=middle;resizable=0;points=[];" vertex="1" connectable="0" parent="9LSmWpDDiQw-UIfxzBy9-81">
          <mxGeometry x="-0.0039" y="-1" relative="1" as="geometry">
            <mxPoint as="offset" />
          </mxGeometry>
        </mxCell>
        <mxCell id="9LSmWpDDiQw-UIfxzBy9-83" value="&lt;b&gt;Nécessite&lt;/b&gt;&lt;div&gt;DateTransaction&lt;/div&gt;" style="ellipse;whiteSpace=wrap;html=1;" vertex="1" parent="WIyWlLk6GJQsqaUBKTNV-1">
          <mxGeometry x="354" y="764" width="120" height="80" as="geometry" />
        </mxCell>
        <mxCell id="9LSmWpDDiQw-UIfxzBy9-84" value="" style="edgeStyle=orthogonalEdgeStyle;rounded=0;orthogonalLoop=1;jettySize=auto;html=1;endArrow=none;endFill=0;" edge="1" parent="WIyWlLk6GJQsqaUBKTNV-1" source="9LSmWpDDiQw-UIfxzBy9-83" target="9LSmWpDDiQw-UIfxzBy9-74">
          <mxGeometry relative="1" as="geometry">
            <mxPoint x="450" y="694" as="sourcePoint" />
            <mxPoint x="440" y="854" as="targetPoint" />
          </mxGeometry>
        </mxCell>
        <mxCell id="9LSmWpDDiQw-UIfxzBy9-85" value="1,1" style="edgeLabel;html=1;align=center;verticalAlign=middle;resizable=0;points=[];" vertex="1" connectable="0" parent="9LSmWpDDiQw-UIfxzBy9-84">
          <mxGeometry x="-0.0745" y="-3" relative="1" as="geometry">
            <mxPoint as="offset" />
          </mxGeometry>
        </mxCell>
        <mxCell id="9LSmWpDDiQw-UIfxzBy9-86" value="" style="edgeStyle=orthogonalEdgeStyle;rounded=0;orthogonalLoop=1;jettySize=auto;html=1;endArrow=none;endFill=0;" edge="1" parent="WIyWlLk6GJQsqaUBKTNV-1">
          <mxGeometry relative="1" as="geometry">
            <mxPoint x="702" y="744" as="sourcePoint" />
            <mxPoint x="702" y="691.5" as="targetPoint" />
          </mxGeometry>
        </mxCell>
        <mxCell id="9LSmWpDDiQw-UIfxzBy9-87" value="1,1" style="edgeLabel;html=1;align=center;verticalAlign=middle;resizable=0;points=[];" vertex="1" connectable="0" parent="9LSmWpDDiQw-UIfxzBy9-86">
          <mxGeometry x="-0.0039" y="-1" relative="1" as="geometry">
            <mxPoint as="offset" />
          </mxGeometry>
        </mxCell>
        <mxCell id="9LSmWpDDiQw-UIfxzBy9-88" value="&lt;div&gt;&lt;b&gt;Reçoit&lt;/b&gt;&lt;/div&gt;" style="ellipse;whiteSpace=wrap;html=1;" vertex="1" parent="WIyWlLk6GJQsqaUBKTNV-1">
          <mxGeometry x="640" y="611.5" width="120" height="80" as="geometry" />
        </mxCell>
        <mxCell id="9LSmWpDDiQw-UIfxzBy9-89" value="" style="edgeStyle=orthogonalEdgeStyle;rounded=0;orthogonalLoop=1;jettySize=auto;html=1;endArrow=none;endFill=0;" edge="1" parent="WIyWlLk6GJQsqaUBKTNV-1" source="9LSmWpDDiQw-UIfxzBy9-88" target="9LSmWpDDiQw-UIfxzBy9-27">
          <mxGeometry relative="1" as="geometry">
            <mxPoint x="530" y="520" as="sourcePoint" />
            <mxPoint x="710" y="630" as="targetPoint" />
          </mxGeometry>
        </mxCell>
        <mxCell id="9LSmWpDDiQw-UIfxzBy9-90" value="1,N" style="edgeLabel;html=1;align=center;verticalAlign=middle;resizable=0;points=[];" vertex="1" connectable="0" parent="9LSmWpDDiQw-UIfxzBy9-89">
          <mxGeometry x="-0.0745" y="-3" relative="1" as="geometry">
            <mxPoint x="-3" y="1" as="offset" />
          </mxGeometry>
        </mxCell>
      </root>
    </mxGraphModel>
  </diagram>
</mxfile>
